<?xml version="1.0" encoding="UTF-8" standalone="no"?>
<!-- Created with Inkscape (http://www.inkscape.org/) -->

<svg
   xmlns:dc="http://purl.org/dc/elements/1.1/"
   xmlns:cc="http://creativecommons.org/ns#"
   xmlns:rdf="http://www.w3.org/1999/02/22-rdf-syntax-ns#"
   xmlns:svg="http://www.w3.org/2000/svg"
   xmlns="http://www.w3.org/2000/svg"
   xmlns:xlink="http://www.w3.org/1999/xlink"
   xmlns:sodipodi="http://sodipodi.sourceforge.net/DTD/sodipodi-0.dtd"
   xmlns:inkscape="http://www.inkscape.org/namespaces/inkscape"
   version="1.1"
   id="svg2"
   width="4271.3042"
   height="3098.4348"
   viewBox="0 0 4271.3042 3098.4348"
   sodipodi:docname="map_labels.jpg.svg"
   inkscape:version="0.92.2 (5c3e80d, 2017-08-06)">
  <metadata
     id="metadata8">
    <rdf:RDF>
      <cc:Work
         rdf:about="">
        <dc:format>image/svg+xml</dc:format>
        <dc:type
           rdf:resource="http://purl.org/dc/dcmitype/StillImage" />
        <dc:title></dc:title>
      </cc:Work>
    </rdf:RDF>
  </metadata>
  <defs
     id="defs6">
    <marker
       inkscape:isstock="true"
       style="overflow:visible;"
       id="marker7020"
       refX="0.0"
       refY="0.0"
       orient="auto"
       inkscape:stockid="Arrow1Send">
      <path
         transform="scale(0.2) rotate(180) translate(6,0)"
         style="fill-rule:evenodd;stroke:#ff0000;stroke-width:1pt;stroke-opacity:1;fill:#ff0000;fill-opacity:1"
         d="M 0.0,0.0 L 5.0,-5.0 L -12.5,0.0 L 5.0,5.0 L 0.0,0.0 z "
         id="path7018" />
    </marker>
    <marker
       inkscape:stockid="TriangleOutL"
       orient="auto"
       refY="0.0"
       refX="0.0"
       id="TriangleOutL"
       style="overflow:visible"
       inkscape:isstock="true">
      <path
         id="path965"
         d="M 5.77,0.0 L -2.88,5.0 L -2.88,-5.0 L 5.77,0.0 z "
         style="fill-rule:evenodd;stroke:#000000;stroke-width:1pt;stroke-opacity:1;fill:#000000;fill-opacity:1"
         transform="scale(0.8)" />
    </marker>
    <marker
       inkscape:stockid="Arrow1Send"
       orient="auto"
       refY="0.0"
       refX="0.0"
       id="marker6582"
       style="overflow:visible;"
       inkscape:isstock="true">
      <path
         id="path6580"
         d="M 0.0,0.0 L 5.0,-5.0 L -12.5,0.0 L 5.0,5.0 L 0.0,0.0 z "
         style="fill-rule:evenodd;stroke:#000000;stroke-width:1pt;stroke-opacity:1;fill:#000000;fill-opacity:1"
         transform="scale(0.2) rotate(180) translate(6,0)" />
    </marker>
    <marker
       inkscape:stockid="Arrow1Send"
       orient="auto"
       refY="0.0"
       refX="0.0"
       id="marker6440"
       style="overflow:visible;"
       inkscape:isstock="true">
      <path
         id="path6438"
         d="M 0.0,0.0 L 5.0,-5.0 L -12.5,0.0 L 5.0,5.0 L 0.0,0.0 z "
         style="fill-rule:evenodd;stroke:#000000;stroke-width:1pt;stroke-opacity:1;fill:#000000;fill-opacity:1"
         transform="scale(0.2) rotate(180) translate(6,0)" />
    </marker>
    <marker
       inkscape:stockid="Arrow1Send"
       orient="auto"
       refY="0.0"
       refX="0.0"
       id="marker6310"
       style="overflow:visible;"
       inkscape:isstock="true">
      <path
         id="path6308"
         d="M 0.0,0.0 L 5.0,-5.0 L -12.5,0.0 L 5.0,5.0 L 0.0,0.0 z "
         style="fill-rule:evenodd;stroke:#000000;stroke-width:1pt;stroke-opacity:1;fill:#000000;fill-opacity:1"
         transform="scale(0.2) rotate(180) translate(6,0)" />
    </marker>
    <marker
       inkscape:stockid="Arrow1Send"
       orient="auto"
       refY="0.0"
       refX="0.0"
       id="marker5458"
       style="overflow:visible;"
       inkscape:isstock="true">
      <path
         id="path5456"
         d="M 0.0,0.0 L 5.0,-5.0 L -12.5,0.0 L 5.0,5.0 L 0.0,0.0 z "
         style="fill-rule:evenodd;stroke:#000000;stroke-width:1pt;stroke-opacity:1;fill:#000000;fill-opacity:1"
         transform="scale(0.2) rotate(180) translate(6,0)" />
    </marker>
    <marker
       inkscape:stockid="Arrow1Send"
       orient="auto"
       refY="0.0"
       refX="0.0"
       id="marker5179"
       style="overflow:visible;"
       inkscape:isstock="true">
      <path
         id="path5177"
         d="M 0.0,0.0 L 5.0,-5.0 L -12.5,0.0 L 5.0,5.0 L 0.0,0.0 z "
         style="fill-rule:evenodd;stroke:#ff0000;stroke-width:1pt;stroke-opacity:1;fill:#ff0000;fill-opacity:1"
         transform="scale(0.2) rotate(180) translate(6,0)" />
    </marker>
    <marker
       inkscape:isstock="true"
       style="overflow:visible;"
       id="marker4771"
       refX="0.0"
       refY="0.0"
       orient="auto"
       inkscape:stockid="Arrow1Send"
       inkscape:collect="always">
      <path
         transform="scale(0.2) rotate(180) translate(6,0)"
         style="fill-rule:evenodd;stroke:#000000;stroke-width:1pt;stroke-opacity:1;fill:#000000;fill-opacity:1"
         d="M 0.0,0.0 L 5.0,-5.0 L -12.5,0.0 L 5.0,5.0 L 0.0,0.0 z "
         id="path4769" />
    </marker>
    <marker
       inkscape:stockid="Arrow1Send"
       orient="auto"
       refY="0.0"
       refX="0.0"
       id="marker4663"
       style="overflow:visible;"
       inkscape:isstock="true">
      <path
         id="path4661"
         d="M 0.0,0.0 L 5.0,-5.0 L -12.5,0.0 L 5.0,5.0 L 0.0,0.0 z "
         style="fill-rule:evenodd;stroke:#ff0000;stroke-width:1pt;stroke-opacity:1;fill:#ff0000;fill-opacity:1"
         transform="scale(0.2) rotate(180) translate(6,0)" />
    </marker>
    <marker
       inkscape:stockid="Arrow1Send"
       orient="auto"
       refY="0.0"
       refX="0.0"
       id="marker4557"
       style="overflow:visible;"
       inkscape:isstock="true">
      <path
         id="path4555"
         d="M 0.0,0.0 L 5.0,-5.0 L -12.5,0.0 L 5.0,5.0 L 0.0,0.0 z "
         style="fill-rule:evenodd;stroke:#000000;stroke-width:1pt;stroke-opacity:1;fill:#000000;fill-opacity:1"
         transform="scale(0.2) rotate(180) translate(6,0)" />
    </marker>
    <marker
       inkscape:stockid="Arrow1Send"
       orient="auto"
       refY="0.0"
       refX="0.0"
       id="marker4463"
       style="overflow:visible;"
       inkscape:isstock="true">
      <path
         id="path4461"
         d="M 0.0,0.0 L 5.0,-5.0 L -12.5,0.0 L 5.0,5.0 L 0.0,0.0 z "
         style="fill-rule:evenodd;stroke:#ff0000;stroke-width:1pt;stroke-opacity:1;fill:#ff0000;fill-opacity:1"
         transform="scale(0.2) rotate(180) translate(6,0)" />
    </marker>
    <marker
       inkscape:isstock="true"
       style="overflow:visible;"
       id="marker3713"
       refX="0.0"
       refY="0.0"
       orient="auto"
       inkscape:stockid="Arrow1Send"
       inkscape:collect="always">
      <path
         transform="scale(0.2) rotate(180) translate(6,0)"
         style="fill-rule:evenodd;stroke:#ff0000;stroke-width:1pt;stroke-opacity:1;fill:#ff0000;fill-opacity:1"
         d="M 0.0,0.0 L 5.0,-5.0 L -12.5,0.0 L 5.0,5.0 L 0.0,0.0 z "
         id="path3711" />
    </marker>
    <marker
       inkscape:stockid="Arrow1Send"
       orient="auto"
       refY="0.0"
       refX="0.0"
       id="marker2453"
       style="overflow:visible;"
       inkscape:isstock="true"
       inkscape:collect="always">
      <path
         id="path2451"
         d="M 0.0,0.0 L 5.0,-5.0 L -12.5,0.0 L 5.0,5.0 L 0.0,0.0 z "
         style="fill-rule:evenodd;stroke:#ff0000;stroke-width:1pt;stroke-opacity:1;fill:#ff0000;fill-opacity:1"
         transform="scale(0.2) rotate(180) translate(6,0)" />
    </marker>
    <marker
       inkscape:isstock="true"
       style="overflow:visible;"
       id="marker1835"
       refX="0.0"
       refY="0.0"
       orient="auto"
       inkscape:stockid="Arrow1Send"
       inkscape:collect="always">
      <path
         transform="scale(0.2) rotate(180) translate(6,0)"
         style="fill-rule:evenodd;stroke:#ff0000;stroke-width:1pt;stroke-opacity:1;fill:#ff0000;fill-opacity:1"
         d="M 0.0,0.0 L 5.0,-5.0 L -12.5,0.0 L 5.0,5.0 L 0.0,0.0 z "
         id="path1833" />
    </marker>
    <marker
       inkscape:stockid="Arrow1Send"
       orient="auto"
       refY="0.0"
       refX="0.0"
       id="marker1379"
       style="overflow:visible;"
       inkscape:isstock="true"
       inkscape:collect="always">
      <path
         id="path1377"
         d="M 0.0,0.0 L 5.0,-5.0 L -12.5,0.0 L 5.0,5.0 L 0.0,0.0 z "
         style="fill-rule:evenodd;stroke:#ff0000;stroke-width:1pt;stroke-opacity:1;fill:#ff0000;fill-opacity:1"
         transform="scale(0.2) rotate(180) translate(6,0)" />
    </marker>
    <marker
       inkscape:stockid="Arrow1Send"
       orient="auto"
       refY="0.0"
       refX="0.0"
       id="marker1321"
       style="overflow:visible;"
       inkscape:isstock="true">
      <path
         id="path1319"
         d="M 0.0,0.0 L 5.0,-5.0 L -12.5,0.0 L 5.0,5.0 L 0.0,0.0 z "
         style="fill-rule:evenodd;stroke:#ff0000;stroke-width:1pt;stroke-opacity:1;fill:#ff0000;fill-opacity:1"
         transform="scale(0.2) rotate(180) translate(6,0)" />
    </marker>
    <marker
       inkscape:stockid="Arrow1Send"
       orient="auto"
       refY="0.0"
       refX="0.0"
       id="marker1251"
       style="overflow:visible;"
       inkscape:isstock="true">
      <path
         id="path1249"
         d="M 0.0,0.0 L 5.0,-5.0 L -12.5,0.0 L 5.0,5.0 L 0.0,0.0 z "
         style="fill-rule:evenodd;stroke:#ff0000;stroke-width:1pt;stroke-opacity:1;fill:#ff0000;fill-opacity:1"
         transform="scale(0.2) rotate(180) translate(6,0)" />
    </marker>
    <marker
       inkscape:stockid="Arrow1Mend"
       orient="auto"
       refY="0.0"
       refX="0.0"
       id="marker1205"
       style="overflow:visible;"
       inkscape:isstock="true">
      <path
         id="path1203"
         d="M 0.0,0.0 L 5.0,-5.0 L -12.5,0.0 L 5.0,5.0 L 0.0,0.0 z "
         style="fill-rule:evenodd;stroke:#000000;stroke-width:1pt;stroke-opacity:1;fill:#000000;fill-opacity:1"
         transform="scale(0.4) rotate(180) translate(10,0)" />
    </marker>
    <marker
       inkscape:stockid="Arrow2Lend"
       orient="auto"
       refY="0.0"
       refX="0.0"
       id="Arrow2Lend"
       style="overflow:visible;"
       inkscape:isstock="true">
      <path
         id="path844"
         style="fill-rule:evenodd;stroke-width:0.625;stroke-linejoin:round;stroke:#ff0000;stroke-opacity:1;fill:#ff0000;fill-opacity:1"
         d="M 8.7185878,4.0337352 L -2.2072895,0.016013256 L 8.7185884,-4.0017078 C 6.9730900,-1.6296469 6.9831476,1.6157441 8.7185878,4.0337352 z "
         transform="scale(1.1) rotate(180) translate(1,0)" />
    </marker>
    <marker
       inkscape:stockid="Arrow1Send"
       orient="auto"
       refY="0.0"
       refX="0.0"
       id="Arrow1Send"
       style="overflow:visible;"
       inkscape:isstock="true">
      <path
         id="path838"
         d="M 0.0,0.0 L 5.0,-5.0 L -12.5,0.0 L 5.0,5.0 L 0.0,0.0 z "
         style="fill-rule:evenodd;stroke:#ff0000;stroke-width:1pt;stroke-opacity:1;fill:#ff0000;fill-opacity:1"
         transform="scale(0.2) rotate(180) translate(6,0)" />
    </marker>
    <marker
       inkscape:stockid="Arrow1Mend"
       orient="auto"
       refY="0.0"
       refX="0.0"
       id="marker1107"
       style="overflow:visible;"
       inkscape:isstock="true">
      <path
         id="path1105"
         d="M 0.0,0.0 L 5.0,-5.0 L -12.5,0.0 L 5.0,5.0 L 0.0,0.0 z "
         style="fill-rule:evenodd;stroke:#000000;stroke-width:1pt;stroke-opacity:1;fill:#000000;fill-opacity:1"
         transform="scale(0.4) rotate(180) translate(10,0)" />
    </marker>
    <marker
       inkscape:stockid="Arrow1Mend"
       orient="auto"
       refY="0.0"
       refX="0.0"
       id="Arrow1Mend"
       style="overflow:visible;"
       inkscape:isstock="true">
      <path
         id="path832"
         d="M 0.0,0.0 L 5.0,-5.0 L -12.5,0.0 L 5.0,5.0 L 0.0,0.0 z "
         style="fill-rule:evenodd;stroke:#000000;stroke-width:1pt;stroke-opacity:1;fill:#000000;fill-opacity:1"
         transform="scale(0.4) rotate(180) translate(10,0)" />
    </marker>
  </defs>
  <sodipodi:namedview
     pagecolor="#ffffff"
     bordercolor="#666666"
     borderopacity="1"
     objecttolerance="10"
     gridtolerance="10"
     guidetolerance="10"
     inkscape:pageopacity="0"
     inkscape:pageshadow="2"
     inkscape:window-width="1680"
     inkscape:window-height="986"
     id="namedview4"
     showgrid="false"
     inkscape:zoom="0.21543419"
     inkscape:cx="2663.2663"
     inkscape:cy="2631.3905"
     inkscape:window-x="0"
     inkscape:window-y="27"
     inkscape:window-maximized="1"
     inkscape:current-layer="svg2" />
  <image
     sodipodi:absref="/home/camilo/MPTG/teaching/md_biomol/web_page/images/map.jpg"
     xlink:href="map.jpg"
     y="0"
     x="0"
     id="image10"
     preserveAspectRatio="none"
     height="3098.4348"
     width="4271.3042" />
  <path
     style="fill:none;stroke:#ff0000;stroke-width:15;stroke-linecap:butt;stroke-linejoin:miter;stroke-miterlimit:4;stroke-dasharray:none;stroke-opacity:1;marker-end:url(#marker1379)"
     d="m 1030.4771,1374.0103 c 95.1566,83.5522 97.4775,85.8731 97.4775,85.8731"
     id="path821"
     inkscape:connector-curvature="0" />
  <path
     inkscape:connector-curvature="0"
     id="path1831"
     d="m 1638.5514,937.68216 c 95.1566,83.55224 97.4775,85.87314 97.4775,85.87314"
     style="fill:none;stroke:#ff0000;stroke-width:15;stroke-linecap:butt;stroke-linejoin:miter;stroke-miterlimit:4;stroke-dasharray:none;stroke-opacity:1;marker-end:url(#marker1835)" />
  <path
     style="fill:none;stroke:#ff0000;stroke-width:15;stroke-linecap:butt;stroke-linejoin:miter;stroke-miterlimit:4;stroke-dasharray:none;stroke-opacity:1;marker-end:url(#marker2453)"
     d="m 426.74297,2402.5813 c 95.1566,83.5522 97.4775,85.8731 97.4775,85.8731"
     id="path2449"
     inkscape:connector-curvature="0" />
  <path
     inkscape:connector-curvature="0"
     id="path3709"
     d="m 1395.0039,2041.5349 c 95.1566,83.5522 97.4775,85.8731 97.4775,85.8731"
     style="fill:none;stroke:#ff0000;stroke-width:15;stroke-linecap:butt;stroke-linejoin:miter;stroke-miterlimit:4;stroke-dasharray:none;stroke-opacity:1;marker-end:url(#marker3713)" />
  <path
     style="fill:none;stroke:#ff0000;stroke-width:10;stroke-linecap:butt;stroke-linejoin:miter;stroke-opacity:1;stroke-miterlimit:4;stroke-dasharray:none;marker-end:"
     d="m 1095.4621,1768.5623 c 3.0946,-0.7736 6.1558,-1.6953 9.2836,-2.3208 7.7363,-1.5473 -2.3209,2.3208 2.3209,-2.3209 0.547,-0.5471 1.5473,0 2.3209,0 0.7736,0 1.5473,0 2.3209,0 0.5629,0 6.888,0.075 6.9627,0 0.547,-0.5471 -0.346,-1.629 0,-2.3209 0.4893,-0.9786 1.5472,-1.5473 2.3209,-2.3209 0.7736,-0.7737 1.3423,-1.8316 2.3209,-2.3209 0.6919,-0.346 1.7738,0.547 2.3209,0 1.094,-1.0941 -1.0941,-3.5477 0,-4.6418 1.094,-1.0941 3.5477,1.0941 4.6418,0 0.547,-0.5471 -0.5471,-1.7739 0,-2.3209 0.547,-0.547 1.7738,0.547 2.3208,0 1.5391,-1.5391 -1.539,-3.1027 0,-4.6418 1.0941,-1.0941 3.2579,0.692 4.6418,0 0.9786,-0.4893 1.3424,-1.8316 2.3209,-2.3209 0.692,-0.346 1.7739,0.5471 2.3209,0 1.0941,-1.0941 -1.0941,-3.5477 0,-4.6418 1.0941,-1.0941 3.5477,1.0941 4.6418,0 0.5471,-0.547 -0.547,-1.7738 0,-2.3209 1.0941,-1.0941 3.2579,0.692 4.6418,0 0.9786,-0.4893 1.3423,-1.8316 2.3209,-2.3209 0.9202,-0.4601 6.4882,0.4745 6.9627,0 0.547,-0.547 -0.5471,-1.7738 0,-2.3209 1.5391,-1.539 3.1027,1.5391 4.6418,0 0.547,-0.547 -0.5471,-1.7738 0,-2.3209 0.4744,-0.4744 6.0424,0.4602 6.9626,0 0.9786,-0.4892 1.3424,-1.8316 2.3209,-2.3208 0.692,-0.346 1.7739,0.547 2.3209,0 0.5471,-0.5471 -0.547,-1.7739 0,-2.3209 1.0941,-1.0941 3.5477,1.094 4.6418,0 0.5471,-0.5471 -0.547,-1.7739 0,-2.3209 1.0941,-1.0941 3.5477,1.094 4.6418,0 0.5471,-0.5471 -0.547,-1.7739 0,-2.3209 1.0941,-1.0941 3.5477,1.094 4.6418,0 0.547,-0.5471 -0.547,-1.7739 0,-2.3209 0.5585,-0.5585 8.7251,0.5585 9.2836,0 0.547,-0.5471 -0.5471,-1.7739 0,-2.3209 1.0941,-1.0941 3.5477,1.0941 4.6418,0 0.547,-0.5471 -0.5471,-1.7739 0,-2.3209 0.4744,-0.4745 6.0424,0.4601 6.9627,0 0.9785,-0.4893 1.3423,-1.8316 2.3208,-2.3209 1.384,-0.692 3.5478,1.0941 4.6418,0 0.5471,-0.547 -0.547,-1.7739 0,-2.3209 1.0941,-1.0941 3.2579,0.692 4.6418,0 0.9786,-0.4893 1.3423,-1.8316 2.3209,-2.3209 1.3839,-0.692 3.2579,0.692 4.6418,0 0.9786,-0.4893 1.3423,-1.8316 2.3209,-2.3209 1.4642,-0.7321 10.1403,0.7321 11.6045,0 0.9785,-0.4893 1.3423,-1.8316 2.3209,-2.3209 0.6919,-0.346 1.7738,0.5471 2.3209,0 0.547,-0.547 -0.5471,-1.7738 0,-2.3209 0.547,-0.547 1.5472,0 2.3209,0 1.0943,0 11.4992,0.1052 11.6044,0 0.5471,-0.547 -0.547,-1.7738 0,-2.3209 1.1605,-1.1604 5.8023,1.1605 6.9627,0 0.5471,-0.547 -0.547,-1.7738 0,-2.3209 0.5471,-0.547 1.5473,0 2.3209,0 0.7736,0 1.5473,0 2.3209,0 6.1891,0 12.3781,0 18.5672,0 0.7736,0 1.5472,0 2.3209,0 0.7736,0 1.7738,0.5471 2.3208,0 0.5471,-0.547 -0.547,-1.7738 0,-2.3209 0.5471,-0.547 1.629,0.346 2.3209,0 0.9786,-0.4893 1.3424,-1.8316 2.3209,-2.3209 0.9202,-0.4601 6.4882,0.4745 6.9627,0 0.5471,-0.547 -0.547,-1.7738 0,-2.3209 1.5391,-1.539 3.1027,1.5391 4.6418,0 0.547,-0.547 -0.547,-1.7738 0,-2.3208 0.6351,-0.6351 8.0245,0.6295 9.2836,0 0.9786,-0.4893 1.3423,-1.8317 2.3209,-2.3209 0.6919,-0.346 1.7738,0.547 2.3209,0 0.547,-0.5471 -0.5471,-1.7739 0,-2.3209 1.0941,-1.0941 3.2578,0.6919 4.6418,0 0.9785,-0.4893 1.3423,-1.8316 2.3209,-2.3209 0.6919,-0.346 1.7738,0.547 2.3208,0 0.5471,-0.5471 -0.547,-1.7739 0,-2.3209 0.4745,-0.4745 6.0425,0.4601 6.9627,0 7.6975,-7.6975 -2.1881,1.0941 4.6418,-2.3209 1.9572,-0.9786 2.6847,-3.6632 4.6418,-4.6418 0.692,-0.346 1.5473,0 2.3209,0 0.7736,0 1.5473,0 2.3209,0 4.6418,0 9.2836,0 13.9254,0 0.7736,0 1.5472,0 2.3209,0 0.7736,0 1.7738,0.547 2.3209,0 0.547,-0.547 -0.5471,-1.7739 0,-2.3209 1.094,-1.0941 3.5477,1.0941 4.6417,0 0.5471,-0.547 -0.547,-1.7739 0,-2.3209 0.5471,-0.547 1.7739,0.547 2.3209,0 0.5471,-0.547 -0.547,-1.7739 0,-2.3209 1.0941,-1.0941 3.2579,0.692 4.6418,0 9.659,-4.8295 -2.4811,0.1602 2.3209,-4.6418 0.5471,-0.547 1.7739,0.5471 2.3209,0 1.0941,-1.0941 -1.0941,-3.5477 0,-4.6418 0.5471,-0.547 1.587,0.2447 2.3209,0 1.6411,-0.547 3.4186,-1.0976 4.6418,-2.3209 0.547,-0.547 -0.547,-1.7738 0,-2.3209 1.0941,-1.094 3.5477,1.0941 4.6418,0 0.547,-0.547 -0.5471,-1.7738 0,-2.3209 1.0941,-1.094 3.2579,0.692 4.6418,0 0.9785,-0.4892 1.3423,-1.8316 2.3209,-2.3208 0.6919,-0.346 1.7738,0.547 2.3209,0 1.094,-1.0941 -1.0941,-3.5478 0,-4.6418 1.094,-1.0941 3.5477,1.094 4.6418,0 0.547,-0.5471 -0.5471,-1.7739 0,-2.3209 4.802,-4.802 -0.1878,7.3381 4.6417,-2.3209 0.692,-1.3839 -1.094,-3.5477 0,-4.6418 0.5471,-0.5471 1.7739,0.547 2.3209,0 0.5471,-0.5471 -0.547,-1.7739 0,-2.3209 4.802,-4.802 -0.1877,7.3381 4.6418,-2.3209 0.692,-1.3839 -1.0941,-3.5477 0,-4.6418 0.5471,-0.547 1.629,0.346 2.3209,0 1.9572,-0.9786 2.6847,-3.6632 4.6418,-4.6418 0.692,-0.346 1.7739,0.5471 2.3209,0 0.547,-0.547 -0.547,-1.7738 0,-2.3209 0.547,-0.547 1.6289,0.346 2.3209,0 0.9786,-0.4893 1.3423,-1.8316 2.3209,-2.3209 1.3839,-0.6919 3.5477,1.0941 4.6418,0 0.547,-0.547 -0.5471,-1.7738 0,-2.3209 1.0941,-1.094 3.2579,0.692 4.6418,0 1.9571,-0.9785 2.6846,-3.6632 4.6418,-4.6418 1.8567,-0.9283 5.1059,0.9284 6.9626,0 0.9786,-0.4892 1.3424,-1.8316 2.3209,-2.3208 0.9202,-0.4602 6.4882,0.4744 6.9627,0 0.5471,-0.5471 -0.6919,-1.975 0,-2.3209 1.5015,-0.7508 8.4499,0.8337 9.2836,0 0.547,-0.5471 -0.547,-1.7739 0,-2.3209 1.0941,-1.0941 3.2579,0.6919 4.6418,0 0.9786,-0.4893 1.3423,-1.8316 2.3209,-2.3209 1.8567,-0.9284 5.1059,0.9283 6.9627,0 7.6974,-7.6975 -2.1882,1.0941 4.6417,-2.3209 9.6591,-4.8295 -2.4811,0.1602 2.3209,-4.6418 0.5585,-0.5585 8.7251,0.5585 9.2836,0 0.5471,-0.5471 -0.547,-1.7739 0,-2.3209 0.5471,-0.547 1.7739,0.547 2.3209,0 0.5471,-0.547 -0.547,-1.7739 0,-2.3209 1.5391,-1.5391 3.1027,1.5391 4.6418,0 0.547,-0.547 -0.547,-1.7739 0,-2.3209 0.547,-0.547 1.7739,0.547 2.3209,0 0.547,-0.547 -0.547,-1.7738 0,-2.3209 4.802,-4.802 -0.1877,7.3381 4.6418,-2.3209 0.346,-0.6919 -0.5471,-1.7738 0,-2.3209 0.635,-0.635 8.0245,0.6296 9.2836,0 9.659,-4.8295 -2.4812,0.1602 2.3209,-4.6418 4.802,-4.802 -0.1878,7.3381 4.6417,-2.3209 0.346,-0.6919 -0.547,-1.7738 0,-2.3209 1.0941,-1.094 3.5478,1.0941 4.6418,0 5.4429,-5.4429 -7.1504,0 -2.3209,0 11.7247,0 1.7837,-1.7836 4.6418,-4.6417 0.5471,-0.5471 1.629,0.3459 2.3209,0 0.9786,-0.4893 1.5473,-1.5473 2.3209,-2.3209 0.7736,-0.7737 1.8316,-1.3424 2.3209,-2.3209 0.346,-0.692 -0.547,-1.7739 0,-2.3209 0.5471,-0.5471 1.6289,0.346 2.3209,0 0.9786,-0.4893 1.3423,-1.8316 2.3209,-2.3209 0.692,-0.346 1.7739,0.547 2.3209,0 0.547,-0.5471 -0.547,-1.7739 0,-2.3209 0.5585,-0.5585 8.7251,0.5585 9.2836,0 0.547,-0.5471 -0.5471,-1.7739 0,-2.3209 0.547,-0.547 1.7738,0.547 2.3209,0 0.547,-0.547 -0.5471,-1.7739 0,-2.3209 0.547,-0.547 1.7738,0.547 2.3209,0 0.547,-0.547 -0.5471,-1.7739 0,-2.3209 0.547,-0.547 1.7738,0.547 2.3209,0 0.547,-0.547 -0.5471,-1.7739 0,-2.3209 0.547,-0.547 1.7738,0.547 2.3209,0 0.547,-0.547 -0.5471,-1.7738 0,-2.3209 1.094,-1.0941 3.5477,1.0941 4.6417,0 1.0941,-1.0941 -1.094,-3.5477 0,-4.6418 1.1605,-1.1604 5.8023,1.1605 6.9627,0 1.0941,-1.0941 -1.0941,-3.5477 0,-4.6418 1.0941,-1.094 3.5477,1.0941 4.6418,0 0.5471,-0.547 -0.547,-1.7738 0,-2.3209 0.5471,-0.547 1.6289,0.346 2.3209,0 0.9786,-0.4892 1.3423,-1.8316 2.3209,-2.3209 1.3839,-0.6919 3.5477,1.0941 4.6418,0 1.0941,-1.094 -1.0941,-3.5477 0,-4.6417 0.547,-0.5471 1.7738,0.547 2.3209,0 1.0941,-1.0941 -1.0941,-3.5478 0,-4.6418 0.547,-0.5471 1.6289,0.3459 2.3209,0 0.9786,-0.4893 1.5472,-1.5473 2.3209,-2.3209 0.7736,-0.7737 1.8316,-1.3423 2.3209,-2.3209 0.3459,-0.692 -0.5471,-1.7739 0,-2.3209 1.094,-1.0941 3.5477,1.0941 4.6418,0 0.547,-0.5471 -0.5471,-1.7739 0,-2.3209 1.094,-1.0941 3.5477,1.0941 4.6417,0 1.0941,-1.0941 -1.094,-3.5477 0,-4.6418 6.1891,0 -0.7736,0.7736 2.3209,-2.3209 0.5585,-0.5585 8.7251,0.5585 9.2836,0 0.5471,-0.547 -0.547,-1.7738 0,-2.3209 0.5471,-0.547 1.7739,0.5471 2.3209,0 0.547,-0.547 -0.547,-1.7738 0,-2.3209 1.1605,-1.1604 5.8022,1.1605 6.9627,0 4.802,-4.802 -7.3381,0.1877 2.3209,-4.6418 0.6919,-0.3459 1.7738,0.5471 2.3209,0 1.0941,-1.094 -1.0941,-3.5477 0,-4.6418 0.5585,-0.5584 8.7251,0.5585 9.2836,0 0.547,-0.547 -0.5471,-1.7738 0,-2.3209 1.094,-1.094 3.5477,1.0941 4.6417,0 0,-6.189 -0.7736,0.7737 2.3209,-2.3208 0.5471,-0.5471 -0.547,-1.7739 0,-2.3209 1.0941,-1.0941 3.5477,1.094 4.6418,0 0.5471,-0.5471 -0.547,-1.7739 0,-2.3209 0.5471,-0.5471 1.7739,0.547 2.3209,0 0.5471,-0.5471 -0.547,-1.7739 0,-2.3209 6.1891,0 -0.7736,0.7736 2.3209,-2.3209 0.5471,-0.5471 1.7739,0.547 2.3209,0 0.5471,-0.5471 -0.547,-1.7739 0,-2.3209 1.0941,-1.0941 3.2579,0.6919 4.6418,0 0.9786,-0.4893 1.3423,-1.8316 2.3209,-2.3209 0.9202,-0.4601 6.4882,0.4745 6.9627,0 1.0941,-1.0941 -1.0941,-3.5477 0,-4.6418 1.0941,-1.0941 3.2579,0.692 4.6418,0 9.659,-4.8295 -2.4812,0.1602 2.3209,-4.6418 1.094,-1.0941 3.5477,1.0941 4.6418,0 0.547,-0.547 -0.5471,-1.7738 0,-2.3209 0.8337,-0.8337 7.782,0.7508 9.2835,0 0.692,-0.346 -0.547,-1.7738 0,-2.3209 0.4745,-0.4745 6.0425,0.4601 6.9627,0 1.9572,-0.9786 2.6847,-3.6632 4.6418,-4.6418 0.692,-0.3459 1.7739,0.5471 2.3209,0 0.547,-0.547 -0.547,-1.7738 0,-2.3209 0.7187,-0.7186 10.8858,0.7187 11.6045,0 0.547,-0.547 -0.5471,-1.7738 0,-2.3209 1.1604,-1.1604 5.8022,1.1605 6.9626,0 0.5471,-0.547 -0.547,-1.7738 0,-2.3208 0.7187,-0.7187 10.8859,0.7186 11.6045,0 0.5471,-0.5471 -0.547,-1.7739 0,-2.3209 1.0941,-1.0941 3.5477,1.094 4.6418,0 1.0941,-1.0941 -1.0941,-3.5478 0,-4.6418 0.5585,-0.5585 8.7251,0.5584 9.2836,0 0.547,-0.5471 -0.5471,-1.7739 0,-2.3209 0.4745,-0.4745 6.0425,0.4601 6.9627,0 9.659,-4.8295 -2.4811,0.1602 2.3209,-4.6418 1.1604,-1.1605 5.8022,1.1604 6.9626,0 0.5471,-0.5471 -0.547,-1.7739 0,-2.3209 0.5471,-0.5471 1.7739,0.547 2.3209,0 0.5471,-0.5471 -0.547,-1.7739 0,-2.3209 0.5471,-0.547 1.7739,0.547 2.3209,0 0.5471,-0.547 -0.547,-1.7739 0,-2.3209 0.5471,-0.547 1.7739,0.547 2.3209,0 0.5471,-0.547 -0.547,-1.7739 0,-2.3209 0.5471,-0.547 1.7739,0.547 2.3209,0 0.5471,-0.547 -0.7736,-2.3209 0,-2.3209 0.7737,0 0,3.0945 0,2.3209 0,-1.5473 -0.6919,-3.2579 0,-4.6418 0.346,-0.6919 1.7739,0.5471 2.3209,0 0.5471,-0.547 -0.547,-1.7738 0,-2.3209 0.5471,-0.547 1.7739,0.5471 2.3209,0 1.0941,-1.0941 -1.0941,-3.5477 0,-4.6418 0.5471,-0.547 1.7739,0.5471 2.3209,0 1.0941,-1.094 -0.6919,-3.2578 0,-4.6418 0.4893,-0.9785 1.8316,-1.3423 2.3209,-2.3208 0.346,-0.692 -0.547,-1.7739 0,-2.3209 1.1604,-1.1605 5.8022,1.1604 6.9627,0 0.547,-0.5471 -0.5471,-1.7739 0,-2.3209 0.547,-0.5471 1.7738,0.547 2.3209,0 0.547,-0.5471 -0.5471,-1.7739 0,-2.3209 0.547,-0.5471 1.7738,0.547 2.3209,0 0.547,-0.5471 -0.5471,-1.7739 0,-2.3209 1.0941,-1.0941 3.5477,1.0941 4.6418,0 0.547,-0.5471 -0.5471,-1.7739 0,-2.3209 0.547,-0.5471 1.7738,0.547 2.3209,0 0.547,-0.5471 -0.5471,-1.7739 0,-2.3209 0.4744,-0.4745 6.0424,0.4601 6.9626,0 0.9786,-0.4893 1.3424,-1.8316 2.3209,-2.3209 0.692,-0.346 1.7739,0.547 2.3209,0 0.5471,-0.547 -0.547,-1.7739 0,-2.3209 1.0941,-1.0941 3.5477,1.0941 4.6418,0 0.5471,-0.547 -0.547,-1.7739 0,-2.3209 1.0941,-1.0941 3.2579,0.692 4.6418,0 0.9786,-0.4893 1.3423,-1.8316 2.3209,-2.3209 0.9202,-0.4601 6.4882,0.4745 6.9627,0 0.547,-0.547 -0.692,-1.9749 0,-2.3209 0.8475,-0.4237 11.1527,0.4518 11.6045,0 0.547,-0.547 -0.5471,-1.7738 0,-2.3209 0.5584,-0.5585 8.7251,0.5585 9.2835,0 0,-6.189 -0.7736,0.7737 2.3209,-2.3209 0.5471,-0.547 -0.547,-1.7738 0,-2.3209 0.7187,-0.7186 10.8858,0.7187 11.6045,0 1.5391,-1.539 -1.5391,-3.1027 0,-4.6418 0.547,-0.547 1.5473,0 2.3209,0 0,-0.7736 -0.547,-1.7738 0,-2.3209 0.547,-0.547 1.5473,0 2.3209,0 0.7736,0 2.3209,-0.7736 2.3209,0 0,0.7737 -3.0945,0 -2.3209,0 1.5473,0 3.0945,0 4.6418,0 0.7736,0 1.7738,0.5471 2.3209,0 0.547,-0.547 -0.5471,-1.7738 0,-2.3208 1.0941,-1.0941 3.5477,1.094 4.6418,0 0.547,-0.5471 -0.5471,-1.7739 0,-2.3209 1.094,-1.0941 3.5477,1.094 4.6417,0 1.0941,-1.0941 -1.5472,-4.6418 0,-4.6418 0.7737,0 0,3.0945 0,2.3209 0,-10.5654 1.0941,-0.1328 -2.3208,-6.9627 -0.4197,-0.8393 0,-9.9902 0,-11.6045 0,-4.6418 0,-9.2836 0,-13.9254 0,-0.7736 -0.5471,-1.7738 0,-2.3209 0.547,-0.547 1.7738,0.5471 2.3208,0 1.1605,-1.1604 -1.1604,-5.8022 0,-6.9626 0.5471,-0.5471 1.7739,0.547 2.3209,0 0.5471,-0.5471 -0.547,-1.7739 0,-2.3209 1.3871,-1.3871 4.6418,2.5086 4.6418,-2.3209 0,-0.7737 -2.3209,0.7736 -2.3209,0 0,-0.5276 8.7279,0.5557 9.2836,0 0.5471,-0.5471 -0.547,-1.7739 0,-2.3209 0.5471,-0.5471 1.7739,0.547 2.3209,0 0.547,-0.5471 -0.547,-1.7739 0,-2.3209 1.0941,-1.0941 3.5477,1.0941 4.6418,0 0.547,-0.5471 -0.547,-1.7739 0,-2.3209 0.547,-0.547 1.7739,0.547 2.3209,0 0.547,-0.547 -0.547,-1.7739 0,-2.3209 0.5585,-0.5585 8.7251,0.5585 9.2836,0 0.547,-0.547 -0.5471,-1.7739 0,-2.3209 0.547,-0.547 1.7738,0.547 2.3209,0 0.547,-0.547 -0.5471,-1.7738 0,-2.3209 0.547,-0.547 1.7738,0.5471 2.3209,0 0.547,-0.547 -0.5471,-1.7738 0,-2.3209 0.547,-0.547 1.6289,0.346 2.3209,0 0.9785,-0.4893 1.3423,-1.8316 2.3208,-2.3209 0.692,-0.346 1.629,0.346 2.3209,0 7.6975,-7.6974 -2.1881,1.0941 4.6418,-2.3209 0.9786,-0.4893 1.3423,-1.8316 2.3209,-2.3209 0.692,-0.3459 1.5473,0 2.3209,0 1.5473,0 3.1739,0.4893 4.6418,0 1.0379,-0.3459 1.3423,-1.8316 2.3209,-2.3209 0.692,-0.3459 1.7739,0.5471 2.3209,0 0.547,-0.547 -0.547,-1.7738 0,-2.3209 1.0941,-1.094 3.5477,1.0941 4.6418,0 0.547,-0.547 -0.5471,-1.7738 0,-2.3208 1.0941,-1.0941 3.5477,1.094 4.6418,0 0.547,-0.5471 -0.5471,-1.7739 0,-2.3209 1.1604,-1.1605 5.8022,1.1604 6.9627,0 0.547,-0.5471 -0.5471,-1.7739 0,-2.3209 0.7186,-0.7187 10.8858,0.7186 11.6044,0 1.0941,-1.0941 -1.0941,-3.5477 0,-4.6418 0.6351,-0.6351 8.0245,0.6295 9.2836,0 4.2728,-2.1364 0.369,-4.8263 4.6418,-6.9627 6.189,0 -0.7736,0.7736 2.3209,-2.3209 1.0941,-1.0941 3.5477,1.0941 4.6418,0 1.0941,-1.0941 -1.0941,-3.5477 0,-4.6418 0.547,-0.547 1.6289,0.346 2.3209,0 0.9785,-0.4893 1.3423,-1.8316 2.3209,-2.3209 0.6919,-0.346 1.7738,0.5471 2.3209,0 0.547,-0.547 -0.5471,-1.7738 0,-2.3209 0.5584,-0.5585 8.7251,0.5585 9.2835,0 0.5471,-0.547 -0.547,-1.7738 0,-2.3209 0.5471,-0.547 1.629,0.346 2.3209,0 0.9786,-0.4893 1.3424,-1.8316 2.3209,-2.3209 1.8567,-0.9283 5.106,0.9284 6.9627,0 9.659,-4.8295 -2.4811,0.1603 2.3209,-4.6418 0.1052,-0.1051 10.5102,0 11.6045,0 0.7736,0 1.7738,0.5471 2.3209,0 0.547,-0.547 -0.5471,-1.7738 0,-2.3209 1.0941,-1.094 3.5477,1.0941 4.6418,0 0.547,-0.547 -0.5471,-1.7738 0,-2.3208 0.547,-0.5471 1.7738,0.547 2.3209,0 0.547,-0.5471 -0.5471,-1.7739 0,-2.3209 0.547,-0.5471 1.7738,0.547 2.3208,0 0.5471,-0.5471 -0.547,-1.7739 0,-2.3209 0.5471,-0.5471 2.3209,-0.7737 2.3209,0 0,1.094 -3.4149,2.3209 -2.3209,2.3209 11.7248,0 1.7837,-1.7837 4.6418,-4.6418 0.5471,-0.5471 1.7739,0.547 2.3209,0 1.5422,-1.5422 -1.5421,-3.0997 0,-4.6418 0.6351,-0.6351 8.0246,0.6295 9.2836,0 0.9786,-0.4893 1.3423,-1.8316 2.3209,-2.3209 0.692,-0.346 1.7739,0.547 2.3209,0 0.547,-0.5471 -0.547,-1.7739 0,-2.3209 1.0941,-1.0941 3.2579,0.6919 4.6418,0 0.9786,-0.4893 1.3423,-1.8316 2.3209,-2.3209 1.3839,-0.692 3.5477,1.0941 4.6418,0 0.547,-0.547 0,-1.5473 0,-2.3209 0,-0.7736 0,-1.5473 0,-2.3209 0,-1.5473 0,-6.189 0,-4.6418 0,1.5473 0,6.1891 0,4.6418 0,-4.6418 0,-9.2836 0,-13.9254 0,-0.7736 0.547,-1.7738 0,-2.3209 -0.5471,-0.547 -1.7739,0.5471 -2.3209,0 -1.1605,-1.1604 1.1604,-5.8022 0,-6.9626 -0.5471,-0.5471 -1.7739,0.547 -2.3209,0 -0.5471,-0.5471 0.547,-1.7739 0,-2.3209 -0.5471,-0.5471 -1.7739,0.547 -2.3209,0 -0.5471,-0.5471 -0.7736,-2.3209 0,-2.3209 0.7736,0 0.7736,2.3209 0,2.3209 -4.8295,0 -0.9339,-3.2548 -2.3209,-4.6418 -0.547,-0.5471 -1.7739,0.547 -2.3209,0 -1.0941,-1.0941 1.0941,-3.5477 0,-4.6418 -1.0941,-1.0941 -3.2579,0.692 -4.6418,0 -0.9786,-0.4893 -1.3423,-1.8316 -2.3209,-2.3209 -1.3839,-0.692 -3.5477,1.0941 -4.6418,0 -0.547,-0.547 0.5471,-1.7739 0,-2.3209 -1.0941,-1.0941 -3.2578,0.692 -4.6418,0 -0.9785,-0.4893 -1.3423,-1.8316 -2.3209,-2.3209 -1.3839,-0.6919 -3.5477,1.0941 -4.6417,0 -0.5471,-0.547 0.547,-1.7738 0,-2.3209 -0.5471,-0.547 -1.7739,0.5471 -2.3209,0 -0.5471,-0.547 0.547,-1.7738 0,-2.3209 -1.0941,-1.0941 -3.2579,0.692 -4.6418,0 -0.9786,-0.4893 -1.3423,-1.8316 -2.3209,-2.3209 -1.3839,-0.6919 -3.5477,1.0941 -4.6418,0 -0.5471,-0.547 0.547,-1.7738 0,-2.3209 -0.5471,-0.547 -1.7739,0.5471 -2.3209,0 -0.547,-0.547 0.547,-1.7738 0,-2.3209 -1.0941,-1.094 -3.5477,1.0941 -4.6418,0 -4.802,-4.802 7.3381,0.1878 -2.3209,-4.6417 -0.6919,-0.346 -1.7738,0.547 -2.3209,0 -1.0941,-1.0941 1.0941,-3.5478 0,-4.6418 -1.0941,-1.0941 -3.5477,1.094 -4.6418,0 -1.0941,-1.0941 1.0941,-3.5477 0,-4.6418 -1.0941,-1.0941 -3.5477,1.0941 -4.6418,0 -0.547,-0.5471 -0.7736,-2.3209 0,-2.3209 0.7737,0 0,3.0945 0,2.3209 0,-1.5473 0.692,-3.2579 0,-4.6418 -0.6919,-1.3839 -3.5477,1.0941 -4.6418,0 -0.547,-0.5471 0.5471,-1.7739 0,-2.3209 -1.094,-1.0941 -3.5477,1.0941 -4.6417,0 -0.5471,-0.5471 0.547,-1.7739 0,-2.3209 -1.0941,-1.0941 -3.5477,1.0941 -4.6418,0 -0.5471,-0.547 0.547,-1.7739 0,-2.3209 -0.075,-0.075 -6.3998,0 -6.9627,0 -4.505,0 -9.2835,0 -18.5672,0 -0.5628,0 -6.888,0.075 -6.9626,0 -0.5471,-0.547 0.547,-1.7739 0,-2.3209 -0.5471,-0.547 -1.7739,0.547 -2.3209,0 -0.5471,-0.547 0.547,-1.7738 0,-2.3209 -0.5471,-0.547 -1.5473,0 -2.3209,0 -3.8682,0 -7.7364,0 -11.6045,0 -0.7736,0 -1.7739,-0.547 -2.3209,0 -0.547,0.5471 0.547,1.7739 0,2.3209 -1.0941,1.0941 -3.5477,-1.0941 -4.6418,0 -0.547,0.547 0.547,1.7739 0,2.3209 -1.0941,1.0941 -3.5477,-1.0941 -4.6418,0 -0.547,0.547 0.5471,1.7739 0,2.3209 -0.547,0.547 -1.5472,0 -2.3209,0 -3.8681,0 -7.7363,0 -11.6044,0 -0.7737,0 -1.7739,-0.547 -2.3209,0 -0.5471,0.547 0.547,1.7738 0,2.3209 -0.7187,0.7186 -10.8859,-0.7187 -11.6045,0 -0.5471,0.547 0.547,1.7738 0,2.3209 -0.5471,0.547 -2.3209,0.7736 -2.3209,0 0,-0.7736 3.0945,0 2.3209,0 -3.8682,0 -7.7363,0 -11.6045,0 -0.7736,0 -1.7738,-0.5471 -2.3209,0 -0.547,0.547 0,1.5472 0,2.3209"
     id="path4453"
     inkscape:connector-curvature="0" />
  <path
     inkscape:connector-curvature="0"
     id="path4767"
     d="m 884.26076,1599.1371 c 95.1566,83.5522 97.4775,85.8731 97.4775,85.8731"
     style="fill:none;stroke:#ff0000;stroke-width:15;stroke-linecap:butt;stroke-linejoin:miter;stroke-miterlimit:4;stroke-dasharray:none;stroke-opacity:1;marker-end:url(#marker4771)" />
</svg>
